# xmcd
#
# Track frame offsets:
#	150
#	13548
#	22770
#	37468
#	49917
#	62865
#	78710
#	91280
#	103708
#	118257
#	128402
#	142878
#	155376
#	167274
#	186822
#	198945
#	208443
#	220249
#	235089
#	241548
#	254235
#	265158
#	276647
#	285129
#	297323
#	311598
#
# Disc length: 4307 seconds
#
# Revision: 0
# Processed by: cddbd v1.5.2PL0 Copyright (c) Steve Scherf et al.
# Submitted via: audiograbber 1.83.01
#
DISCID=7e10d11a
DTITLE=Various Artist - Bob Dylan's Theme Time Radio Hour - Ser. 2, Disk 2
DYEAR=2009
DGENRE=Country
TTITLE0=Little Willie John - All Around the World - Little Willie John - Show 1
TTITLE0=5 Around the World Part 2
TTITLE1=Warren Smith - Ubangi Stomp - Warren Smith - Show 15 Around the World P
TTITLE1=art2
TTITLE2=The Key - Key The (To Your Door) - Sonny Boy Williamson - Show 16 Lock 
TTITLE2=and Key
TTITLE3=Little Walter - Key To the Highway
TTITLE4=The Ravens - Write Me a Letter
TTITLE5=Fats Waller - I'm Gonna Sit Right Down and Write Myself a Letter
TTITLE6=Wynonie Harris - I Feel That Old Age Coming On
TTITLE7=Buddy and Ella Johnson - Gotta Go Upside Your Head
TTITLE8=Billie Holiday - Gloomy Sunday
TTITLE9=Doc Pomus - Send For the Doctor
TTITLE10=Lord Lebby - Dr. Kinsey Report
TTITLE11=Bill Nettles and The Dixie Blue Boys - Hadocal Boogie
TTITLE12=Esther Phillips - Better Beware
TTITLE13=Bob Dorough - You're the Dangerous Type
TTITLE14=Be Careful - Be Careful (What You Say and Do)
TTITLE15=Fats Domino - Rooster Song
TTITLE16=Charlie Parker - Bird Gets the Worm
TTITLE17=The Stanley Brothers - White Dove
TTITLE18=Andre Toussaint - Hold 'Em Joe
TTITLE19=Blue Lu Barker - Where's Joe
TTITLE20=Cisco Houston - Diamond Joe - Cisco Houston - Show 23 Joe
TTITLE21=Billy Lee Riley - Red Hot - Billy Lee Riley - Show 24 Heat
TTITLE22=Jerry Lee Lewis - Great Balls of Fire - Jerry Lee Lewis - Show 24 Heat
TTITLE23=Johnny "Guitar" Watson - Hot Little Mama - Johnny 'Guitar' Watson - Sh
TTITLE23=ow 24 Heat
TTITLE24=T-Bone Walker - Cold Cold Feeling - T-Bone Walker - Show 25 Cold
TTITLE25=The Charmer - Stone Cold Man - Show 25 Cold
EXTD=
EXTT0=
EXTT1=
EXTT2=
EXTT3=
EXTT4=
EXTT5=
EXTT6=
EXTT7=
EXTT8=
EXTT9=
EXTT10=
EXTT11=
EXTT12=
EXTT13=
EXTT14=
EXTT15=
EXTT16=
EXTT17=
EXTT18=
EXTT19=
EXTT20=
EXTT21=
EXTT22=
EXTT23=
EXTT24=
EXTT25=
PLAYORDER=
